<svg width="31" height="24" viewBox="0 0 31 24" fill="none" xmlns="http://www.w3.org/2000/svg">
<path d="M3.40001 5.94773C4.88881 5.94773 6.10001 4.72573 6.10001 3.22386C6.10001 1.722 4.88881 0.5 3.40001 0.5C1.91121 0.5 0.700012 1.722 0.700012 3.22386C0.700012 4.72573 1.91081 5.94773 3.40001 5.94773ZM3.40001 2.20909C4.00681 2.20909 4.50001 2.66414 4.50001 3.22386C4.50001 3.78359 4.00681 4.23864 3.40001 4.23864C2.79321 4.23864 2.30001 3.78359 2.30001 3.22386C2.30001 2.66414 2.79321 2.20909 3.40001 2.20909Z" fill="black" fill-opacity="0.65"/>
<path d="M29.7 2.36932H10.1C9.65839 2.36932 9.29999 2.75216 9.29999 3.22387C9.29999 3.69558 9.65839 4.07841 10.1 4.07841H29.7C30.1416 4.07841 30.5 3.69558 30.5 3.22387C30.5 2.75216 30.1416 2.36932 29.7 2.36932Z" fill="black" fill-opacity="0.65"/>
<path d="M3.30001 14.9738C4.78881 14.9738 6.00001 13.7518 6.00001 12.25C6.00001 10.7481 4.78881 9.52612 3.30001 9.52612C1.81121 9.52612 0.600006 10.7481 0.600006 12.25C0.600006 13.7518 1.81081 14.9738 3.30001 14.9738ZM3.30001 11.2352C3.90681 11.2352 4.40001 11.6903 4.40001 12.25C4.40001 12.8097 3.90681 13.2648 3.30001 13.2648C2.69321 13.2648 2.20001 12.8097 2.20001 12.25C2.20001 11.6903 2.69321 11.2352 3.30001 11.2352Z" fill="black" fill-opacity="0.65"/>
<path d="M29.6 11.3954H10C9.55841 11.3954 9.20001 11.7783 9.20001 12.25C9.20001 12.7217 9.55841 13.1045 10 13.1045H29.6C30.0416 13.1045 30.4 12.7217 30.4 12.25C30.4 11.7783 30.0416 11.3954 29.6 11.3954Z" fill="black" fill-opacity="0.65"/>
<path d="M5.9 21.2761C5.9 19.7743 4.6888 18.5523 3.2 18.5523C1.7112 18.5523 0.5 19.7743 0.5 21.2761C0.5 22.778 1.7112 24 3.2 24C4.6888 24 5.9 22.778 5.9 21.2761ZM3.2 22.2909C2.5932 22.2909 2.1 21.8359 2.1 21.2761C2.1 20.7164 2.5932 20.2614 3.2 20.2614C3.8068 20.2614 4.3 20.7164 4.3 21.2761C4.3 21.8359 3.8064 22.2909 3.2 22.2909Z" fill="black" fill-opacity="0.65"/>
<path d="M29.5 20.4216H9.90001C9.45841 20.4216 9.10001 20.8044 9.10001 21.2761C9.10001 21.7479 9.45841 22.1307 9.90001 22.1307H29.5C29.9416 22.1307 30.3 21.7479 30.3 21.2761C30.3 20.8044 29.9416 20.4216 29.5 20.4216Z" fill="black" fill-opacity="0.65"/>
</svg>
