<svg width="16" height="16" viewBox="0 0 16 16" fill="none" xmlns="http://www.w3.org/2000/svg">
<path fill-rule="evenodd" clip-rule="evenodd" d="M10.146 4.64598C10.1924 4.59941 10.2476 4.56247 10.3083 4.53727C10.3691 4.51206 10.4342 4.49908 10.5 4.49908C10.5657 4.49908 10.6309 4.51206 10.6916 4.53727C10.7524 4.56247 10.8075 4.59941 10.854 4.64598L13.854 7.64598C13.9005 7.69242 13.9375 7.7476 13.9627 7.80834C13.9879 7.86909 14.0009 7.93421 14.0009 7.99998C14.0009 8.06575 13.9879 8.13087 13.9627 8.19161C13.9375 8.25236 13.9005 8.30753 13.854 8.35398L10.854 11.354C10.7601 11.4479 10.6328 11.5006 10.5 11.5006C10.3672 11.5006 10.2399 11.4479 10.146 11.354C10.0521 11.2601 9.99935 11.1328 9.99935 11C9.99935 10.8672 10.0521 10.7399 10.146 10.646L12.793 7.99998L10.146 5.35398C10.0994 5.30753 10.0625 5.25236 10.0373 5.19161C10.0121 5.13087 9.99908 5.06575 9.99908 4.99998C9.99908 4.93421 10.0121 4.86909 10.0373 4.80834C10.0625 4.7476 10.0994 4.69242 10.146 4.64598Z" fill="#878BC8"/>
<path fill-rule="evenodd" clip-rule="evenodd" d="M6 8C6 7.86739 6.05268 7.74021 6.14645 7.64645C6.24021 7.55268 6.36739 7.5 6.5 7.5H13C13.1326 7.5 13.2598 7.55268 13.3536 7.64645C13.4473 7.74021 13.5 7.86739 13.5 8C13.5 8.13261 13.4473 8.25979 13.3536 8.35355C13.2598 8.44732 13.1326 8.5 13 8.5H6.5C6.36739 8.5 6.24021 8.44732 6.14645 8.35355C6.05268 8.25979 6 8.13261 6 8ZM3.5 14C3.36739 14 3.24021 13.9473 3.14645 13.8536C3.05268 13.7598 3 13.6326 3 13.5V2.5C3 2.36739 3.05268 2.24021 3.14645 2.14645C3.24021 2.05268 3.36739 2 3.5 2C3.63261 2 3.75979 2.05268 3.85355 2.14645C3.94732 2.24021 4 2.36739 4 2.5V13.5C4 13.6326 3.94732 13.7598 3.85355 13.8536C3.75979 13.9473 3.63261 14 3.5 14Z" fill="#878BC8"/>
</svg>
