<svg width="60" height="60" viewBox="0 0 60 60" fill="none" xmlns="http://www.w3.org/2000/svg">
<path d="M40.8595 23.2021C40.7165 22.9934 40.5246 22.8891 40.2838 22.8891H24.9538L23.7798 18.7853C23.6744 18.4143 23.5314 18.0974 23.3508 17.8347C23.1702 17.5719 22.9783 17.3864 22.7751 17.2782C22.5719 17.17 22.395 17.0966 22.2445 17.058C22.094 17.0193 21.9435 17 21.793 17H18.6999C18.5042 17 18.3387 17.0696 18.2032 17.2087C18.0677 17.3478 18 17.5255 18 17.7419C18 17.8656 18.0301 17.9854 18.0903 18.1013C18.1505 18.2172 18.2371 18.3061 18.3499 18.3679C18.4628 18.4298 18.5795 18.4607 18.6999 18.4607H21.793C21.8532 18.4607 21.9096 18.4684 21.9623 18.4839C22.015 18.4993 22.0865 18.565 22.1768 18.6809C22.2671 18.7969 22.3424 18.9708 22.4026 19.2026L26.3987 34.2732C26.4288 34.3659 26.4778 34.4548 26.5455 34.5398C26.6132 34.6248 26.6922 34.6905 26.7826 34.7369C26.8729 34.7833 26.9707 34.8065 27.0761 34.8065H36.8294C36.98 34.8065 37.1192 34.7601 37.2471 34.6673C37.3751 34.5746 37.4616 34.4587 37.5068 34.3196L40.9611 23.8861C41.0363 23.6388 41.0025 23.4108 40.8595 23.2021ZM36.3327 33.3226H27.6405L25.3376 24.373H39.2452L36.3327 33.3226ZM34.9104 36.2903C34.4137 36.2903 33.9885 36.4719 33.6348 36.8352C33.281 37.1984 33.1042 37.6351 33.1042 38.1452C33.1042 38.6552 33.281 39.0919 33.6348 39.4551C33.9885 39.8184 34.4137 40 34.9104 40C35.4071 40 35.8323 39.8184 36.186 39.4551C36.5397 39.0919 36.7165 38.6552 36.7165 38.1452C36.7165 37.6351 36.5397 37.1984 36.186 36.8352C35.8323 36.4719 35.4071 36.2903 34.9104 36.2903ZM28.4081 36.2903C28.077 36.2903 27.7722 36.3753 27.4937 36.5454C27.2153 36.7154 26.997 36.9395 26.839 37.2177C26.681 37.496 26.6019 37.8051 26.6019 38.1452C26.6019 38.6552 26.7788 39.0919 27.1325 39.4551C27.4862 39.8184 27.9114 40 28.4081 40C28.9048 40 29.33 39.8184 29.6837 39.4551C30.0374 39.0919 30.2143 38.6552 30.2143 38.1452C30.2143 38.0215 30.203 37.8979 30.1804 37.7742C30.1579 37.6505 30.124 37.5346 30.0788 37.4264C30.0337 37.3182 29.9772 37.2139 29.9095 37.1134C29.8418 37.0129 29.7665 36.9202 29.6837 36.8352C29.6009 36.7502 29.5106 36.6729 29.4128 36.6033C29.315 36.5338 29.2134 36.4758 29.108 36.4294C29.0027 36.3831 28.8898 36.3483 28.7694 36.3251C28.6489 36.3019 28.5285 36.2903 28.4081 36.2903Z" fill="#878787"/>
</svg>
