<svg width="58" height="60" viewBox="0 0 58 60" fill="none" xmlns="http://www.w3.org/2000/svg">
<path d="M32.3477 29.9986L39.5075 22.8555C39.821 22.5419 39.9972 22.1167 39.9972 21.6733C39.9972 21.2299 39.821 20.8046 39.5075 20.4911C39.1939 20.1775 38.7687 20.0014 38.3253 20.0014C37.8819 20.0014 37.4566 20.1775 37.1431 20.4911L30 27.6508L22.8569 20.4911C22.5434 20.1775 22.1181 20.0014 21.6747 20.0014C21.2313 20.0014 20.8061 20.1775 20.4925 20.4911C20.179 20.8046 20.0028 21.2299 20.0028 21.6733C20.0028 22.1167 20.179 22.5419 20.4925 22.8555L27.6523 29.9986L20.4925 37.1417C20.3365 37.2964 20.2126 37.4806 20.1281 37.6835C20.0435 37.8864 20 38.104 20 38.3238C20 38.5437 20.0435 38.7613 20.1281 38.9642C20.2126 39.1671 20.3365 39.3512 20.4925 39.506C20.6473 39.6621 20.8315 39.786 21.0344 39.8705C21.2373 39.955 21.4549 39.9986 21.6747 39.9986C21.8945 39.9986 22.1122 39.955 22.3151 39.8705C22.518 39.786 22.7021 39.6621 22.8569 39.506L30 32.3463L37.1431 39.506C37.2979 39.6621 37.482 39.786 37.6849 39.8705C37.8878 39.955 38.1055 39.9986 38.3253 39.9986C38.5451 39.9986 38.7627 39.955 38.9656 39.8705C39.1685 39.786 39.3527 39.6621 39.5075 39.506C39.6635 39.3512 39.7874 39.1671 39.8719 38.9642C39.9565 38.7613 40 38.5437 40 38.3238C40 38.104 39.9565 37.8864 39.8719 37.6835C39.7874 37.4806 39.6635 37.2964 39.5075 37.1417L32.3477 29.9986Z" fill="#9E98BE"/>
</svg>
