<svg width="60" height="60" viewBox="0 0 60 60" fill="none" xmlns="http://www.w3.org/2000/svg">
<path fill-rule="evenodd" clip-rule="evenodd" d="M35.1534 33.6567C36.4727 31.9558 37.0944 29.8163 36.8922 27.6734C36.69 25.5304 35.6789 23.545 34.0648 22.121C32.4506 20.697 30.3546 19.9414 28.2031 20.008C26.0517 20.0746 24.0064 20.9583 22.4834 22.4794C20.959 24.0015 20.0724 26.0475 20.0042 28.2006C19.9361 30.3537 20.6915 32.4518 22.1165 34.0673C23.5415 35.6828 25.5289 36.6941 27.6737 36.8952C29.8184 37.0962 31.9592 36.4719 33.6596 35.1494L33.7051 35.1971L38.1929 39.686C38.2912 39.7843 38.4079 39.8622 38.5364 39.9154C38.6648 39.9686 38.8024 39.996 38.9415 39.996C39.0805 39.996 39.2181 39.9686 39.3465 39.9154C39.475 39.8622 39.5917 39.7843 39.69 39.686C39.7883 39.5877 39.8662 39.471 39.9194 39.3425C39.9726 39.2141 40 39.0765 40 38.9375C40 38.7984 39.9726 38.6608 39.9194 38.5324C39.8662 38.4039 39.7883 38.2872 39.69 38.189L35.201 33.7011C35.1856 33.6859 35.1697 33.671 35.1534 33.6567ZM32.9571 23.9764C33.5544 24.564 34.0295 25.2642 34.3549 26.0364C34.6803 26.8085 34.8496 27.6375 34.853 28.4755C34.8564 29.3134 34.6939 30.1437 34.3748 30.9185C34.0557 31.6933 33.5863 32.3973 32.9938 32.9898C32.4013 33.5823 31.6973 34.0517 30.9225 34.3708C30.1477 34.6899 29.3174 34.8524 28.4794 34.849C27.6415 34.8456 26.8125 34.6763 26.0403 34.3509C25.2682 34.0255 24.568 33.5504 23.9804 32.9531C22.8059 31.7594 22.1508 30.15 22.1576 28.4755C22.1644 26.8009 22.8327 25.1969 24.0168 24.0128C25.2009 22.8287 26.8049 22.1604 28.4794 22.1536C30.154 22.1468 31.7634 22.8019 32.9571 23.9764Z" fill="#878787"/>
</svg>
