<svg width="60" height="60" viewBox="0 0 60 60" fill="none" xmlns="http://www.w3.org/2000/svg">
<path d="M30 10C41.0457 10 50 18.9543 50 30C50 41.0457 41.0457 50 30 50C18.9543 50 10 41.0457 10 30C10 18.9543 18.9543 10 30 10Z" fill="#7F4DA0"/>
<path d="M35.3284 27.4653C35.2311 26.6751 34.9882 26.0546 34.5568 25.5049C33.9967 24.7972 33.2809 24.3734 32.2212 24.122C31.5306 23.9544 31.2515 23.9737 31.0018 24.2018C30.7691 24.4156 30.7237 24.8441 30.9015 25.1216C31.0265 25.323 31.1708 25.3952 31.572 25.474C32.1062 25.5723 32.4754 25.6998 32.8113 25.8919C33.5241 26.3035 33.8561 26.9476 33.8917 27.9904C33.9083 28.48 33.9506 28.6305 34.1216 28.8042C34.4385 29.1216 35.0026 29.0599 35.2419 28.68C35.3297 28.5368 35.3431 28.4745 35.3524 28.142C35.3585 27.9362 35.3497 27.6298 35.3284 27.4653Z" fill="white"/>
<path d="M38.1205 28.3564C37.9797 25.9353 37.0327 23.9873 35.3379 22.6168C34.383 21.8467 33.2288 21.3172 31.9636 21.0597C31.5001 20.9676 30.6468 20.8929 30.5004 20.9356C30.3623 20.9751 30.1669 21.1247 30.0798 21.26C29.9877 21.4067 29.9669 21.7342 30.0455 21.9236C30.1723 22.2403 30.4082 22.3522 31.0688 22.41C32.0872 22.4991 33.1377 22.8569 33.9313 23.3866C34.8374 23.9897 35.5577 24.8146 36.0237 25.784C36.4263 26.6168 36.6739 27.8171 36.6671 28.8919C36.6648 29.2806 36.7248 29.5002 36.8811 29.6607C37.1171 29.9075 37.4611 29.9614 37.7646 29.7975C38.1011 29.6206 38.1798 29.31 38.1205 28.3564Z" fill="white"/>
<path d="M41.2102 37.6803C41.1628 37.5419 41.0523 37.3284 40.9734 37.2059C40.476 36.4548 37.8037 34.3635 36.4696 33.6796C35.7078 33.2883 35.1433 33.1578 34.7249 33.2803C34.2749 33.4069 34.0381 33.6163 33.2841 34.5533C32.9802 34.9288 32.6684 35.2807 32.5855 35.336C32.3802 35.4783 31.9776 35.593 31.6934 35.593C31.0342 35.589 29.8382 35.1621 28.9185 34.6007C28.204 34.1659 27.2883 33.3871 26.5857 32.6162C25.7567 31.7109 25.1923 30.9124 24.7462 30.011C24.17 28.8528 24.0239 28.1451 24.2647 27.6272C24.3239 27.4968 24.4029 27.3584 24.4383 27.3149C24.4739 27.2754 24.845 26.971 25.2554 26.6389C26.0607 25.9985 26.1909 25.8523 26.3409 25.4134C26.5304 24.856 26.4791 24.2868 26.187 23.7136C25.962 23.2787 25.3739 22.3299 24.9476 21.7172C24.3831 20.9108 22.9779 19.1872 22.6976 18.9539C22.1924 18.5428 21.5451 18.4716 20.8306 18.7483C20.0767 19.0409 18.6635 20.1794 18.0596 20.974C17.5149 21.6935 17.3057 22.2034 17.2741 22.8755C17.2465 23.4289 17.2939 23.6582 17.586 24.3658C19.8714 29.9161 23.2818 34.3477 27.9672 37.8661C30.4145 39.7043 32.9526 41.1038 35.5854 42.0605C37.1208 42.6178 37.7879 42.6455 38.5734 42.187C38.905 41.9893 39.726 41.1473 40.1839 40.5345C40.9418 39.5146 41.222 39.0441 41.301 38.6686C41.3562 38.4116 41.3128 37.9649 41.2102 37.6803Z" fill="white"/>
<path d="M40.9628 28.9125C40.9123 27.5429 40.6817 26.4196 40.2009 25.1671C39.7262 23.9351 39.2458 23.1312 38.3385 22.0439C37.4807 21.0243 36.8144 20.4422 35.7577 19.7942C34.2834 18.8914 32.4893 18.2939 30.4786 18.0427C29.7929 17.9549 29.6378 17.9611 29.4274 18.1015C29.0198 18.3674 29.0252 19.0306 29.4342 19.2925C29.5695 19.3759 29.6896 19.4062 30.2381 19.478C31.0801 19.5914 31.6215 19.6982 32.2639 19.8735C34.7831 20.5621 36.7204 21.9697 38.0155 24.0593C39.0994 25.801 39.5493 27.5427 39.4854 29.7673C39.4632 30.5194 39.4793 30.6517 39.5943 30.8324C39.8145 31.1692 40.395 31.2358 40.6929 30.9563C40.8782 30.786 40.9131 30.6581 40.9496 30.0145C40.9671 29.6787 40.9709 29.183 40.9628 28.9125Z" fill="white"/>
</svg>
