<svg width="60" height="60" viewBox="0 0 60 60" fill="none" xmlns="http://www.w3.org/2000/svg">
<path d="M30 50C41.0457 50 50 41.0457 50 30C50 18.9543 41.0457 10 30 10C18.9543 10 10 18.9543 10 30C10 41.0457 18.9543 50 30 50Z" fill="#25D366"/>
<path fill-rule="evenodd" clip-rule="evenodd" d="M30.6592 41.1271H30.6543C28.6639 41.1264 26.7081 40.627 24.9711 39.6796L18.6666 41.3333L20.3538 35.1707C19.3131 33.3671 18.7654 31.3212 18.7663 29.2252C18.7689 22.6681 24.104 17.3333 30.6591 17.3333C33.8405 17.3347 36.8265 18.5732 39.0718 20.8212C41.3171 23.069 42.553 26.057 42.5517 29.2346C42.5491 35.7902 37.2162 41.1244 30.6592 41.1271ZM25.2632 37.5265L25.6241 37.7408C27.1418 38.6414 28.8815 39.1179 30.6552 39.1186H30.6592C36.1073 39.1186 40.5416 34.6842 40.5437 29.2339C40.5448 26.5926 39.5176 24.1092 37.6513 22.2408C35.7851 20.3724 33.3033 19.3429 30.6631 19.342C25.2107 19.342 20.7764 23.7759 20.7743 29.2259C20.7735 31.0936 21.2961 32.9126 22.2856 34.4863L22.5206 34.8603L21.522 38.5079L25.2632 37.5265ZM36.2436 31.795C36.4509 31.8952 36.5909 31.9628 36.6506 32.0626C36.7249 32.1865 36.7249 32.7815 36.4774 33.4757C36.2297 34.1698 35.0425 34.8033 34.4715 34.8886C33.9596 34.9651 33.3118 34.9971 32.5999 34.7708C32.1683 34.6339 31.6149 34.4511 30.9059 34.1449C28.1201 32.942 26.2375 30.242 25.8817 29.7317C25.8568 29.6959 25.8393 29.6709 25.8296 29.6579L25.8272 29.6547C25.6699 29.4449 24.6162 28.039 24.6162 26.584C24.6162 25.2152 25.2886 24.4977 25.5981 24.1675C25.6193 24.1449 25.6388 24.1241 25.6563 24.105C25.9286 23.8075 26.2506 23.7331 26.4487 23.7331C26.6467 23.7331 26.8451 23.7349 27.0182 23.7436C27.0396 23.7447 27.0618 23.7446 27.0848 23.7444C27.2579 23.7434 27.4738 23.7422 27.6868 24.2537C27.7687 24.4506 27.8886 24.7425 28.015 25.0503C28.2707 25.6728 28.5533 26.3606 28.603 26.4602C28.6773 26.6089 28.7268 26.7824 28.6277 26.9808C28.6129 27.0105 28.5991 27.0386 28.586 27.0654C28.5116 27.2173 28.4569 27.329 28.3306 27.4765C28.2809 27.5344 28.2296 27.5969 28.1783 27.6594C28.0761 27.7839 27.9739 27.9084 27.8849 27.9971C27.7361 28.1453 27.5812 28.306 27.7546 28.6035C27.9279 28.901 28.5243 29.8741 29.4077 30.6621C30.3573 31.5091 31.1826 31.8671 31.601 32.0485C31.6826 32.084 31.7488 32.1127 31.7974 32.137C32.0944 32.2858 32.2678 32.2609 32.4411 32.0626C32.6145 31.8643 33.1839 31.1949 33.382 30.8974C33.5801 30.6 33.7783 30.6496 34.0506 30.7487C34.323 30.848 35.784 31.5668 36.0811 31.7155C36.1391 31.7445 36.1934 31.7707 36.2436 31.795Z" fill="#FDFDFD"/>
</svg>
